PathFileType	4	(X/Y/Z)	C:\Users\WrightLab\Desktop\Jo\P3_26.trc
DataRate	CameraRate	NumFrames	NumMarkers	Units	OrigDataRate	OrigDataStartFrame	OrigNumFrames
100.00	100.00	       12	19	mm	100.00	479	       638
Frame#	Time	Headset_Front			Headset_Back			Headset_Left			Headset_Right			Left_Shoulder			Right_Shoulder			Sternum			C7			Left Elbow			Right Elbow			Left Wrist			Right Wrist			Left ASIS			Right ASIS			S2			Left Knee			Right Knee			Left Ankle			Right Ankle			
		X1	Y1	Z1	X2	Y2	Z2	X3	Y3	Z3	X4	Y4	Z4	X5	Y5	Z5	X6	Y6	Z6	X7	Y7	Z7	X8	Y8	Z8	X9	Y9	Z9	X10	Y10	Z10	X11	Y11	Z11	X12	Y12	Z12	X13	Y13	Z13	X14	Y14	Z14	X15	Y15	Z15	X16	Y16	Z16	X17	Y17	Z17	X18	Y18	Z18	X19	Y19	Z19	

479	4.780	-152.25435	1562.25757	2055.29346	18.36622	1608.96204	1941.00244							124.49757	1369.68799	1925.48608	-216.29631	1375.99817	1798.96008	-91.53679	1272.43481	2001.53564				170.99049	1036.84534	1970.64514	-278.20078	1035.85278	1747.26929	113.86949	862.73041	2068.22827	-325.83536	868.76886	1895.85413	14.65920	897.00555	2038.07861	-223.27521	904.69330	1951.73608	-32.01492	965.40668	1793.27527	84.33521	474.66922	2019.73999	-189.97758	484.94022	2004.51184	146.95468	283.16864	1749.70251	-142.50233	149.06967	1995.91833	
480	4.790	-156.69270	1563.66418	2061.81177	15.26522	1609.78113	1949.26746							120.37545	1370.84033	1935.68262	-219.02295	1377.11462	1806.95068	-95.28629	1272.75830	2008.44373				167.03728	1036.85266	1980.08447	-281.72931	1038.33777	1745.18579	107.85313	863.29431	2077.21973	-330.92477	871.53802	1902.29346	10.93181	897.19208	2044.73755	-226.97415	904.79419	1957.61243	-33.52931	965.81018	1801.76843	77.45665	474.56546	2036.27551	-191.70840	484.76804	2006.62939	142.26045	285.81931	1768.28589	-142.72392	149.06709	1996.80005	
481	4.800	-161.30006	1563.92444	2068.54443	11.37718	1611.02600	1959.25427							118.12132	1371.32996	1944.55957	-220.59645	1378.71313	1813.31812	-98.62194	1272.76233	2015.56445				163.36116	1036.88635	1989.80066				102.15604	863.55212	2085.73584	-335.55615	874.41937	1910.34668	6.62833	897.70782	2052.08350	-230.26604	906.06677	1963.47168	-35.70035	966.94055	1807.51685	69.37417	476.67780	2053.77002	-193.14758	484.39816	2009.99597	137.77512	286.10815	1787.27002	-143.12068	149.09862	1997.42871	
482	4.810	-165.82925	1565.26624	2075.40332	7.96888	1611.81458	1966.29968							114.77412	1371.49182	1953.85339	-222.65175	1379.83801	1820.57605	-102.46206	1272.78821	2022.15894				159.12663	1037.32715	1998.28760				97.11245	863.06830	2094.03906	-340.56787	878.41284	1918.10266	1.75735	898.84467	2060.71069	-233.02412	906.24194	1967.24097	-36.89317	968.38727	1814.46643	61.16780	477.10001	2068.48218	-194.96797	483.74533	2013.53735	133.04630	284.57251	1808.71167	-143.27640	149.14034	1997.66101	
483	4.820	-170.17361	1566.19604	2081.60645	4.33662	1612.52283	1974.19031							111.72043	1371.92786	1964.23865	-224.28769	1380.69714	1825.51672	-105.92795	1273.05481	2029.06592				155.53429	1037.29797	2008.15808				91.53271	863.45074	2102.89478	-345.45490	879.55127	1923.00977	-3.01524	899.29315	2068.60132	-236.33975	906.26855	1970.94238	-37.88247	969.37823	1822.01917	53.16370	480.21939	2086.44507	-197.10728	483.34381	2016.03101	128.44902	283.09085	1830.05835	-143.50755	148.76799	1998.88989	
484	4.830	-175.09206	1566.93347	2089.22070	0.99526	1613.41821	1983.27905							108.58909	1372.12549	1973.34021	-226.20985	1380.45654	1830.81445	-110.07607	1272.99707	2036.01147				151.84709	1037.64624	2018.67310				86.57678	863.67432	2112.03687	-349.72571	881.32300	1928.35889	-7.23174	899.67657	2075.56445	-239.50383	906.73120	1974.26550	-39.13380	970.66907	1825.93481	44.88343	483.11038	2103.29346	-198.11588	482.89951	2018.98352	125.14839	280.17709	1850.01270	-143.84064	148.72705	1999.62061	
485	4.840	-179.60410	1566.75940	2095.33081	-2.17064	1613.85449	1991.71997							105.27641	1372.33630	1983.41028	-227.35254	1381.85242	1835.72107	-113.63609	1273.32629	2042.42114				147.88997	1037.12817	2028.15564				81.86343	864.10858	2121.43896	-354.08224	883.72083	1934.86218	-12.52119	900.95984	2083.31543	-243.47855	906.55176	1978.69385	-39.59564	971.27832	1833.65881	35.11898	486.50745	2120.02856	-200.04677	482.65161	2021.45020	119.83207	276.99316	1871.07874	-144.21411	148.88161	1999.70129	
486	4.850	-183.81067	1567.11108	2100.85376	-5.73071	1614.31714	1999.55261							102.06267	1372.56433	1992.85266	-228.08818	1382.26038	1840.89636	-117.89537	1273.43835	2049.22388				144.46259	1038.10327	2038.37451				77.31311	864.77417	2131.85376	-359.30939	886.19501	1940.78503	-18.52168	908.24908	2098.52490	-246.43231	907.35345	1982.57153				26.34712	486.50671	2132.64014	-201.94221	482.89014	2025.38037	114.95597	275.84369	1895.93774	-144.48557	149.00783	1999.94641	
487	4.860	-188.51831	1567.55371	2107.29419	-9.55222	1614.68030	2007.77869							98.85989	1372.80835	2001.32117	-229.83278	1383.26257	1847.05835	-121.54185	1273.63318	2055.54150				140.93121	1038.62097	2049.38306				72.61642	864.98346	2141.54688	-363.10040	887.15594	1945.23584	-20.94143	908.98547	2104.77930	-249.66470	907.34796	1986.46436				17.24390	489.00900	2147.71582	-203.33913	482.57080	2027.92249				-144.70726	149.13049	2000.46582	
488	4.870	-193.14183	1567.91272	2113.77148	-12.48934	1615.16760	2016.20203							95.63683	1374.01648	2011.53149	-231.97432	1383.93689	1852.29163	-125.37164	1273.85327	2061.77026				137.53520	1039.49463	2059.24805				67.84025	864.96014	2150.70947	-366.95990	889.74268	1951.22888	-21.26108	910.59509	2116.92529	-253.34525	906.98706	1989.42163				7.98379	491.86792	2162.80078	-204.84404	482.12524	2030.59900	102.60579	265.52069	1940.31836	-145.02228	148.89201	2001.83838	
489	4.880	-197.77107	1568.13367	2120.01880	-15.92841	1615.52234	2024.69373							91.94530	1374.02246	2020.21509	-232.53833	1384.20935	1855.89563	-129.70493	1274.55322	2068.49878				133.85809	1040.09485	2070.96851	-40.36615	971.89716	1866.42175	63.30727	864.93579	2159.28491	-370.54254	890.33600	1954.45337	-32.85469	905.51770	2111.62695	-256.08905	907.23773	1992.55298				-1.40821	493.58582	2177.04517	-206.47209	481.91577	2033.29834	96.28241	261.34735	1963.40320	-145.42358	148.89137	2002.64087	
490	4.890	-202.06734	1568.04517	2125.38135	-19.64041	1615.56592	2032.50989							88.21069	1374.86328	2030.96716	-233.18231	1384.73267	1861.29004	-133.20232	1274.17090	2073.28467				129.95313	1040.95715	2081.07813	-41.07848	972.91931	1872.10303	58.11072	865.50439	2169.30835	-374.97159	892.83026	1959.82324	-37.43208	906.23975	2118.41748	-259.15277	907.26355	1996.48828				-10.85117	496.68237	2191.07056	-207.76439	481.70230	2035.41003	89.54581	254.27130	1984.99231	-145.40077	149.01088	2002.89978	
